<?xml version="1.0" standalone="no"?>
<!DOCTYPE svg PUBLIC "-//W3C//DTD SVG 20010904//EN"
 "http://www.w3.org/TR/2001/REC-SVG-20010904/DTD/svg10.dtd">
<svg version="1.0" xmlns="http://www.w3.org/2000/svg"
 width="128.000000pt" height="128.000000pt" viewBox="0 0 128.000000 128.000000"
 preserveAspectRatio="xMidYMid meet">
<metadata>
Created by potrace 1.11, written by Peter Selinger 2001-2013
</metadata>
<g transform="translate(0.000000,128.000000) scale(0.100000,-0.100000)"
fill="#000000" stroke="none">
<path d="M594 1268 c-25 -12 -39 -36 -58 -98 -13 -44 -14 -44 -24 -20 -18 41
-75 99 -104 104 -33 5 -50 -13 -73 -79 -16 -48 -23 -164 -10 -184 3 -5 -6 -21
-19 -34 -29 -29 -46 -85 -52 -170 -2 -34 -6 -71 -8 -82 -2 -11 2 -38 10 -60
11 -33 11 -42 0 -55 -22 -24 -56 -89 -56 -106 0 -8 -13 -20 -30 -25 -37 -13
-68 -63 -76 -122 -8 -59 7 -95 52 -127 19 -14 41 -37 49 -52 27 -50 85 -85
155 -93 14 -2 27 -4 30 -5 3 -1 19 -3 35 -4 17 0 51 -12 78 -24 81 -41 168
-28 164 23 -1 11 6 19 22 21 13 3 49 15 80 27 37 15 66 21 82 16 46 -12 159
-5 169 11 16 26 11 39 -22 56 -18 9 -34 18 -36 19 -2 1 7 18 18 38 39 66 40
118 6 242 -11 41 -11 53 -1 65 7 8 16 32 20 52 4 20 22 61 41 90 38 58 38 61
23 89 -16 30 -48 38 -96 24 -37 -11 -43 -11 -43 1 0 8 -10 25 -23 37 -13 12
-34 48 -46 79 -13 33 -43 77 -71 107 -32 34 -54 68 -65 103 -19 59 -51 117
-75 135 -18 15 -19 15 -46 1z"/>
<path d="M1055 1195 c-3 -8 -7 -21 -9 -29 -3 -8 5 -32 16 -55 15 -31 26 -41
44 -41 39 0 91 26 99 50 9 27 -21 62 -49 58 -12 -2 -29 5 -38 15 -22 21 -57
22 -63 2z"/>
<path d="M1046 985 c-15 -25 -26 -51 -24 -56 2 -6 16 12 32 41 35 64 28 77 -8
15z"/>
</g>
</svg>
